<?xml version="1.0" standalone="no"?>
<!DOCTYPE svg PUBLIC "-//W3C//DTD SVG 20010904//EN"
 "http://www.w3.org/TR/2001/REC-SVG-20010904/DTD/svg10.dtd">
<svg version="1.0" xmlns="http://www.w3.org/2000/svg"
 width="123px" height="123px" viewBox="0 0 123 100"
 >

<g transform="translate(0.000000,600.000000) scale(0.100000,-0.100000)"
fill="#000000" stroke="none">
<path d="M497 4842 c-10 -10 -17 -23 -17 -30 0 -6 -16 -16 -36 -22 -73 -25
-139 -124 -113 -173 10 -18 12 -17 31 14 26 44 139 159 155 159 8 0 13 13 13
35 0 39 -9 44 -33 17z"/>
<path d="M5240 4845 c0 -5 12 -21 27 -37 32 -33 25 -44 -18 -29 -27 9 -30 9
-19 -4 7 -8 28 -15 47 -15 20 0 32 -4 28 -10 -3 -5 -23 -10 -43 -10 -29 -1
-33 -3 -20 -10 11 -7 26 -7 43 0 32 12 35 12 35 2 0 -5 -19 -15 -42 -22 -24
-7 -37 -15 -30 -17 7 -3 26 1 43 7 16 7 32 10 35 7 4 -3 -9 -12 -28 -20 -30
-13 -35 -20 -47 -75 -7 -33 -11 -66 -8 -74 3 -7 6 1 7 17 1 17 5 39 9 49 6 16
12 10 39 -36 43 -78 69 -84 64 -15 -1 10 5 17 15 17 13 0 14 3 5 12 -16 16
-15 29 2 22 8 -3 17 -1 21 5 4 7 -4 11 -19 11 -36 0 -32 16 5 24 35 7 30 26
-7 26 -31 0 -28 20 4 35 12 5 22 13 22 18 0 4 -9 3 -19 -3 -33 -17 -46 -12
-26 10 10 11 24 20 32 20 7 0 13 4 13 10 0 6 -9 6 -26 0 -53 -21 -46 -3 16 39
64 44 57 52 -12 14 l-53 -30 -35 19 c-19 11 -41 27 -47 36 -7 9 -13 12 -13 7z
m100 -177 c0 -6 -7 -20 -17 -30 -15 -17 -15 -18 2 -18 14 0 15 -3 5 -15 -11
-13 -15 -10 -30 17 -17 32 -17 33 4 45 27 16 36 16 36 1z m-3 -110 c-3 -8 -6
-5 -6 6 -1 11 2 17 5 13 3 -3 4 -12 1 -19z"/>
<path d="M5133 4783 c-26 -20 -36 -23 -47 -14 -11 9 -15 6 -20 -15 -7 -26 -7
-26 -28 -8 -15 14 -20 15 -16 4 3 -8 1 -23 -3 -32 -6 -10 -5 -19 2 -24 8 -4 7
-9 -2 -15 -12 -8 -12 -11 1 -18 12 -8 12 -13 -4 -29 -13 -15 -14 -21 -4 -25
10 -4 10 -8 -2 -16 -9 -6 -10 -11 -3 -11 6 0 9 -8 6 -19 -3 -10 0 -22 6 -25 6
-4 11 0 11 11 0 10 33 54 72 98 40 44 65 74 56 67 -9 -8 -27 -12 -40 -10 -19
3 -15 6 19 17 46 15 68 41 27 33 -30 -5 -30 5 -2 35 29 31 11 29 -29 -4z m-79
-74 c-6 -11 -24 -2 -24 11 0 5 7 7 15 4 8 -4 12 -10 9 -15z m57 -34 c1 -17
-18 -17 -25 0 -4 11 -1 15 10 13 8 -2 15 -7 15 -13z m-26 -25 c3 -5 1 -10 -4
-10 -6 0 -11 5 -11 10 0 6 2 10 4 10 3 0 8 -4 11 -10z m-35 -50 c0 -5 -5 -10
-11 -10 -5 0 -7 5 -4 10 3 6 8 10 11 10 2 0 4 -4 4 -10z"/>
<path d="M5040 4785 c0 -5 5 -17 10 -25 5 -8 10 -10 10 -5 0 6 -5 17 -10 25
-5 8 -10 11 -10 5z"/>
<path d="M5566 4743 c-4 -5 -11 -8 -15 -8 -4 0 -15 -8 -25 -17 -10 -10 -27
-18 -39 -18 -12 0 -29 -5 -37 -10 -12 -8 -10 -10 9 -10 24 0 24 0 5 -15 -17
-13 -16 -14 16 -5 51 15 54 13 23 -16 l-28 -26 27 16 c42 25 67 21 34 -5 -34
-26 -27 -37 8 -13 30 19 46 13 26 -11 -13 -16 0 -21 16 -6 5 6 16 4 28 -5 14
-10 16 -14 5 -14 -10 -1 -9 -4 4 -11 10 -6 30 -8 45 -3 l27 7 -25 7 c-14 4
-24 12 -22 18 1 7 -8 12 -20 13 -13 0 -17 3 -10 6 17 7 15 23 -4 23 -14 0 -14
3 -4 15 10 13 9 15 -9 15 -27 0 -27 13 2 34 21 15 20 15 -11 0 -43 -20 -52
-11 -22 21 20 22 16 38 -4 18z"/>
<path d="M5100 4390 c32 -10 265 -10 305 0 17 4 -47 8 -150 8 -104 0 -169 -3
-155 -8z"/>
<path d="M1451 4223 c-23 -31 -21 -29 -78 -78 -43 -37 -153 -222 -153 -256 0
-26 31 -39 88 -39 l50 0 25 79 c47 145 88 241 103 241 10 0 14 12 14 40 0 48
-19 53 -49 13z"/>
<path d="M5100 4023 c0 -5 72 -7 160 -5 l160 3 0 -50 0 -51 -162 -3 -163 -3
171 -2 172 -2 6 34 c4 18 2 45 -4 60 l-10 26 -165 0 c-91 0 -165 -3 -165 -7z"/>
<path d="M2818 3890 c-72 -11 -106 -29 -146 -75 -44 -50 -68 -100 -99 -207
-25 -90 -26 -103 -28 -383 -2 -171 -7 -303 -13 -322 -6 -18 -8 -33 -4 -33 4 0
34 11 67 24 33 13 85 34 116 46 69 26 110 67 145 144 l27 60 -36 30 c-21 17
-49 32 -63 32 -39 3 -64 32 -64 73 0 20 5 43 10 51 6 10 3 20 -11 33 -26 24
-21 61 9 65 20 3 22 9 22 68 0 35 2 64 5 64 3 0 28 -12 56 -26 28 -14 52 -24
54 -22 1 2 7 12 13 23 11 19 11 19 12 -5 0 -23 7 -28 70 -47 l71 -20 -5 46 -5
46 11 -40 c6 -22 12 -42 14 -44 1 -2 16 6 32 18 17 12 33 21 36 21 15 0 3 -87
-25 -181 -60 -204 -51 -306 44 -503 l52 -109 -1 -106 c0 -122 -28 -249 -100
-465 -24 -72 -44 -131 -44 -133 0 -10 39 1 88 24 66 31 153 109 188 169 64
109 90 273 81 504 -3 80 -9 156 -13 169 -7 22 -5 23 19 17 33 -8 33 -5 2 78
-34 90 -53 209 -64 397 -14 227 -46 331 -133 425 -63 69 -133 98 -242 100 -50
2 -117 -1 -148 -6z"/>
<path d="M5260 3832 c0 -5 7 -9 15 -9 8 0 15 4 15 9 0 4 -7 8 -15 8 -8 0 -15
-4 -15 -8z"/>
<path d="M2747 3313 c-11 -11 -8 -58 5 -71 26 -26 36 -14 25 33 -10 44 -17 52
-30 38z"/>
<path d="M1254 3249 c-16 -5 -41 -20 -54 -34 -28 -30 -40 -32 -40 -5 0 33 -34
24 -107 -31 -89 -67 -100 -82 -179 -238 -24 -48 -25 -57 -15 -91 6 -21 27 -52
47 -70 l36 -31 -31 -68 c-56 -122 -72 -181 -78 -288 -3 -58 -2 -103 3 -103 5
0 10 35 10 78 1 99 23 183 80 297 55 111 122 189 219 254 136 91 228 107 485
88 92 -7 104 -5 48 7 -15 4 -42 19 -60 35 -18 15 -47 35 -63 44 -75 38 -211
29 -255 -18 -34 -36 -43 -31 -18 10 16 28 19 47 16 86 -4 35 -1 55 8 64 27 27
8 32 -52 14z"/>
<path d="M2925 3246 c-19 -14 -19 -15 8 -27 22 -10 32 -10 54 0 27 12 27 13 8
27 -10 8 -26 14 -35 14 -9 0 -25 -6 -35 -14z"/>
<path d="M523 3008 c-30 -14 -29 -22 5 -47 34 -26 8 -29 -36 -4 -30 17 -30 17
-86 -26 -32 -23 -55 -48 -53 -54 2 -7 30 -14 63 -17 44 -4 59 -9 59 -20 0 -12
-15 -15 -74 -15 -67 0 -75 -2 -92 -25 -26 -35 -40 -106 -24 -120 9 -7 19 -4
38 10 48 38 51 20 4 -28 -26 -26 -47 -55 -47 -64 0 -9 14 -28 31 -42 38 -32
102 -35 158 -7 59 31 67 45 42 80 -24 34 -27 51 -7 51 8 0 18 -16 23 -37 10
-45 35 -53 82 -28 38 19 39 31 4 67 -19 20 -24 31 -16 39 8 8 19 1 39 -25 16
-20 33 -36 37 -36 4 0 24 12 43 28 55 44 42 77 -37 90 -29 5 -44 13 -44 22 0
25 63 13 111 -22 46 -33 69 -82 77 -163 3 -31 4 -27 5 19 2 43 -3 68 -19 96
-21 37 -21 40 -5 86 21 62 20 76 -4 107 -27 34 -76 43 -123 23 l-37 -15 -14
34 c-21 50 -57 65 -103 43z m-3 -108 c12 -8 12 -10 -3 -16 -21 -8 -67 3 -67
16 0 13 50 13 70 0z m244 -6 c19 -7 21 -31 4 -36 -14 -5 -86 7 -94 15 -21 21
49 37 90 21z m-334 -129 c0 -8 -7 -15 -15 -15 -16 0 -20 12 -8 23 11 12 23 8
23 -8z m-60 -144 c0 -20 -17 -37 -27 -28 -7 8 7 47 18 47 5 0 9 -9 9 -19z"/>
<path d="M1079 2733 c-13 -16 -12 -17 4 -4 9 7 17 15 17 17 0 8 -8 3 -21 -13z"/>
<path d="M1838 2492 l-147 -227 87 -11 c113 -14 191 -38 272 -80 35 -19 68
-30 72 -26 4 4 42 86 83 182 l75 173 -31 49 c-18 27 -50 64 -73 83 -47 38
-141 85 -171 85 -15 0 -56 -56 -167 -228z"/>
<path d="M1023 2565 c0 -38 2 -53 4 -32 2 20 2 52 0 70 -2 17 -4 1 -4 -38z"/>
<path d="M771 2454 c0 -11 3 -14 6 -6 3 7 2 16 -1 19 -3 4 -6 -2 -5 -13z"/>
<path d="M762 2400 c0 -14 2 -19 5 -12 2 6 2 18 0 25 -3 6 -5 1 -5 -13z"/>
<path d="M1051 2384 c0 -11 3 -14 6 -6 3 7 2 16 -1 19 -3 4 -6 -2 -5 -13z"/>
<path d="M1061 2344 c0 -11 3 -14 6 -6 3 7 2 16 -1 19 -3 4 -6 -2 -5 -13z"/>
<path d="M2471 2278 l-43 -73 4 -167 c2 -106 8 -172 15 -179 8 -8 13 -5 18 12
3 13 11 37 17 52 11 28 11 28 50 -50 36 -73 120 -184 131 -173 14 14 26 192
18 256 -11 87 -23 116 -66 167 -37 43 -71 121 -81 187 -4 22 -9 40 -13 40 -3
0 -26 -33 -50 -72z"/>
<path d="M3475 2314 c-13 -72 -46 -143 -89 -191 -48 -53 -73 -119 -79 -203 -4
-53 8 -188 17 -198 3 -2 28 9 57 25 79 42 94 87 128 372 l18 155 -22 39 -22
39 -8 -38z"/>
<path d="M780 2311 c0 -6 4 -13 10 -16 6 -3 7 1 4 9 -7 18 -14 21 -14 7z"/>
<path d="M3702 1854 l-32 -49 31 -3 c31 -3 59 12 59 32 -1 6 -6 24 -13 40
l-13 29 -32 -49z"/>
<path d="M3387 1494 c-69 -38 -360 -79 -510 -72 -94 5 -167 23 -287 71 -24 9
-121 -111 -179 -223 l-51 -98 -46 -7 c-85 -12 -406 -131 -640 -236 l-111 -50
-22 -77 c-24 -85 -67 -170 -93 -186 -27 -16 -30 -2 -13 52 9 27 15 59 13 70
-3 18 -9 15 -55 -26 l-53 -47 -11 -95 -11 -95 33 -28 c86 -73 207 -113 374
-123 237 -15 805 47 1047 114 59 17 84 18 220 10 84 -5 432 -10 773 -11 673
-2 641 -4 824 55 l64 21 -6 71 c-6 71 -6 71 -59 119 -51 46 -53 47 -56 24 -2
-13 4 -43 12 -67 17 -50 13 -64 -14 -50 -27 14 -77 124 -98 216 l-19 79 -54
22 c-30 12 -70 28 -89 36 -126 54 -396 156 -511 195 -127 42 -137 47 -147 76
-16 44 -102 172 -154 228 -42 47 -43 47 -71 32z m31 -552 c20 -11 58 -30 83
-44 39 -21 67 -27 160 -33 63 -4 140 -15 172 -25 55 -17 127 -57 127 -71 0 -3
-53 -9 -117 -11 -228 -11 -448 -69 -876 -234 -47 -18 -46 -18 -40 4 6 26 -18
82 -56 124 l-31 35 75 6 c131 11 163 24 225 87 30 32 80 85 110 119 49 54 60
61 93 61 21 0 55 -8 75 -18z"/>
<path d="M4778 763 c17 -2 47 -2 65 0 17 2 3 4 -33 4 -36 0 -50 -2 -32 -4z"/>
<path d="M4588 443 c28 -2 76 -2 105 0 28 2 5 3 -53 3 -58 0 -81 -1 -52 -3z"/>
</g>
</svg>
